<svg width="31" height="31" viewBox="0 0 31 31" fill="none" xmlns="http://www.w3.org/2000/svg">
<path d="M21.9583 2.58333H9.04166C7.61493 2.58333 6.45833 3.73993 6.45833 5.16667V25.8333C6.45833 27.2601 7.61493 28.4167 9.04166 28.4167H21.9583C23.3851 28.4167 24.5417 27.2601 24.5417 25.8333V5.16667C24.5417 3.73993 23.3851 2.58333 21.9583 2.58333Z" stroke="black" stroke-width="1.9375" stroke-linecap="round" stroke-linejoin="round"/>
<path d="M17.68 25V19.32H20.048C20.2987 19.32 20.528 19.3733 20.736 19.48C20.944 19.5813 21.1253 19.72 21.28 19.896C21.4347 20.0667 21.5547 20.2613 21.64 20.48C21.7253 20.6933 21.768 20.912 21.768 21.136C21.768 21.4453 21.6987 21.7413 21.56 22.024C21.4213 22.3013 21.2267 22.528 20.976 22.704C20.7253 22.8747 20.432 22.96 20.096 22.96H18.4V25H17.68ZM18.4 22.32H20.056C20.2533 22.32 20.424 22.2667 20.568 22.16C20.7173 22.0533 20.832 21.9093 20.912 21.728C20.9973 21.5467 21.04 21.3493 21.04 21.136C21.04 20.912 20.992 20.712 20.896 20.536C20.8 20.3547 20.6747 20.2133 20.52 20.112C20.3653 20.0107 20.1947 19.96 20.008 19.96H18.4V22.32Z" fill="black"/>
<path d="M9.68 12V6.32H12.048C12.2987 6.32 12.528 6.37333 12.736 6.48C12.944 6.58133 13.1253 6.72 13.28 6.896C13.4347 7.06667 13.5547 7.26133 13.64 7.48C13.7253 7.69333 13.768 7.912 13.768 8.136C13.768 8.44533 13.6987 8.74133 13.56 9.024C13.4213 9.30133 13.2267 9.528 12.976 9.704C12.7253 9.87467 12.432 9.96 12.096 9.96H10.4V12H9.68ZM10.4 9.32H12.056C12.2533 9.32 12.424 9.26667 12.568 9.16C12.7173 9.05333 12.832 8.90933 12.912 8.728C12.9973 8.54667 13.04 8.34933 13.04 8.136C13.04 7.912 12.992 7.712 12.896 7.536C12.8 7.35467 12.6747 7.21333 12.52 7.112C12.3653 7.01067 12.1947 6.96 12.008 6.96H10.4V9.32Z" fill="black"/>
</svg>
