<svg width="31" height="31" viewBox="0 0 31 31" fill="none" xmlns="http://www.w3.org/2000/svg">
<path d="M21.9583 2.58334H9.04166C7.61493 2.58334 6.45833 3.73993 6.45833 5.16667V25.8333C6.45833 27.2601 7.61493 28.4167 9.04166 28.4167H21.9583C23.3851 28.4167 24.5417 27.2601 24.5417 25.8333V5.16667C24.5417 3.73993 23.3851 2.58334 21.9583 2.58334Z" stroke="black" stroke-width="1.9375" stroke-linecap="round" stroke-linejoin="round"/>
<path d="M10 11.68V6H12.368C12.6187 6 12.848 6.05333 13.056 6.16C13.264 6.26133 13.4453 6.4 13.6 6.576C13.7547 6.74667 13.8747 6.94133 13.96 7.16C14.0453 7.37333 14.088 7.592 14.088 7.816C14.088 8.12533 14.0187 8.42133 13.88 8.704C13.7413 8.98133 13.5467 9.208 13.296 9.384C13.0453 9.55467 12.752 9.64 12.416 9.64H10.72V11.68H10ZM10.72 9H12.376C12.5733 9 12.744 8.94667 12.888 8.84C13.0373 8.73333 13.152 8.58933 13.232 8.408C13.3173 8.22667 13.36 8.02933 13.36 7.816C13.36 7.592 13.312 7.392 13.216 7.216C13.12 7.03467 12.9947 6.89333 12.84 6.792C12.6853 6.69067 12.5147 6.64 12.328 6.64H10.72V9Z" fill="black"/>
<path d="M17 24.68V19H19.368C19.6187 19 19.848 19.0533 20.056 19.16C20.264 19.2613 20.4453 19.4 20.6 19.576C20.7547 19.7467 20.8747 19.9413 20.96 20.16C21.0453 20.3733 21.088 20.592 21.088 20.816C21.088 21.1253 21.0187 21.4213 20.88 21.704C20.7413 21.9813 20.5467 22.208 20.296 22.384C20.0453 22.5547 19.752 22.64 19.416 22.64H17.72V24.68H17ZM17.72 22H19.376C19.5733 22 19.744 21.9467 19.888 21.84C20.0373 21.7333 20.152 21.5893 20.232 21.408C20.3173 21.2267 20.36 21.0293 20.36 20.816C20.36 20.592 20.312 20.392 20.216 20.216C20.12 20.0347 19.9947 19.8933 19.84 19.792C19.6853 19.6907 19.5147 19.64 19.328 19.64H17.72V22Z" fill="black"/>
</svg>
