<svg width="300" height="300" viewBox="0 0 300 300" fill="none" xmlns="http://www.w3.org/2000/svg">
<path d="M181.44 253V207.56H200.384C202.389 207.56 204.224 207.987 205.888 208.84C207.552 209.651 209.003 210.76 210.24 212.168C211.477 213.533 212.437 215.091 213.12 216.84C213.803 218.547 214.144 220.296 214.144 222.088C214.144 224.563 213.589 226.931 212.48 229.192C211.371 231.411 209.813 233.224 207.808 234.632C205.803 235.997 203.456 236.68 200.768 236.68H187.2V253H181.44ZM187.2 231.56H200.448C202.027 231.56 203.392 231.133 204.544 230.28C205.739 229.427 206.656 228.275 207.296 226.824C207.979 225.373 208.32 223.795 208.32 222.088C208.32 220.296 207.936 218.696 207.168 217.288C206.4 215.837 205.397 214.707 204.16 213.896C202.923 213.085 201.557 212.68 200.064 212.68H187.2V231.56Z" fill="black"/>
<path d="M85.44 97V51.56H104.384C106.389 51.56 108.224 51.9867 109.888 52.84C111.552 53.6507 113.003 54.76 114.24 56.168C115.477 57.5333 116.437 59.0907 117.12 60.84C117.803 62.5467 118.144 64.296 118.144 66.088C118.144 68.5627 117.589 70.9307 116.48 73.192C115.371 75.4107 113.813 77.224 111.808 78.632C109.803 79.9973 107.456 80.68 104.768 80.68H91.2V97H85.44ZM91.2 75.56H104.448C106.027 75.56 107.392 75.1333 108.544 74.28C109.739 73.4267 110.656 72.2747 111.296 70.824C111.979 69.3733 112.32 67.7947 112.32 66.088C112.32 64.296 111.936 62.696 111.168 61.288C110.4 59.8373 109.397 58.7067 108.16 57.896C106.923 57.0853 105.557 56.68 104.064 56.68H91.2V75.56Z" fill="black"/>
<path d="M210 25H85C71.1929 25 60 36.1929 60 50V250C60 263.807 71.1929 275 85 275H210C223.807 275 235 263.807 235 250V50C235 36.1929 223.807 25 210 25Z" stroke="black" stroke-width="8.33333" stroke-linecap="round" stroke-linejoin="round"/>
</svg>
